# xmcd CD database file
#
# Track frame offsets:
#	150
#	14997
#	32642
#	49952
#	68585
#	85130
#	110025
#	129872
#	153152
#	173337
#	194645
#	216382
#	236235
#
# Disc length: 3368 seconds
#
# Revision: 3
# Processed by: cddbd v1.5.1PL2 Copyright (c) Steve Scherf et al.
# Submitted via: CDex 1.40Release
#
DISCID=b40d260d,b50d260d
DTITLE=The Animals (re-recordings) - Greatest and latest
DYEAR=1996
DGENRE=Rock
TTITLE0=San Franciscan Nights
TTITLE1=Don't Let Me Be Understood
TTITLE2=When I Was Young
TTITLE3=Frisco Queen
TTITLE4=We Gotta Get Out Of This Place
TTITLE5=To Love Somebody
TTITLE6=Lovefire
TTITLE7=Colour Of The Sunset
TTITLE8=The House Of The Rising Sun
TTITLE9=Howlin'
TTITLE10=Night Fighter
TTITLE11=Scandinavian Dreams
TTITLE12=Don't You Leave Me Baby
EXTD=cover versions - artists unknown YEAR: 1996 ID3G: 17
EXTT0=
EXTT1=
EXTT2=
EXTT3=
EXTT4=
EXTT5=
EXTT6=
EXTT7=
EXTT8=
EXTT9=
EXTT10=
EXTT11=
EXTT12=
PLAYORDER=
